<svg id="visual" viewBox="0 0 1500 940" width="1500" height="940" xmlns="http://www.w3.org/2000/svg" xmlns:xlink="http://www.w3.org/1999/xlink" version="1.1"><rect x="0" y="0" width="1500" height="940" fill="#e67e22"></rect><g transform="translate(824.2735343802401 429.4087446704172)"><path d="M303.3 -360.2C405.3 -276 508.4 -191.9 570.5 -67C632.6 57.9 653.6 223.7 605.3 388.9C556.9 554.1 439.2 718.7 299.8 728C160.3 737.3 -0.9 591.4 -166.9 509.1C-333 426.8 -503.8 408.1 -618.4 308.9C-733.1 209.7 -791.5 29.9 -778.7 -153.7C-765.9 -337.4 -681.8 -524.9 -540.2 -602.1C-398.5 -679.3 -199.3 -646.1 -49.3 -587.4C100.7 -528.7 201.4 -444.4 303.3 -360.2" fill="#f39c12"></path></g></svg>